<svg xmlns="http://www.w3.org/2000/svg" viewBox="0 0 360 150">
  <defs>
    <linearGradient id="g" x1="0" y1="0" x2="0" y2="1"><stop offset="0" stop-color="#9ecf66"/><stop offset="1" stop-color="#79b346"/></linearGradient>
    <linearGradient id="hay" x1="0" y1="0" x2="0" y2="1"><stop offset="0" stop-color="#efd47f"/><stop offset="1" stop-color="#d8b45c"/></linearGradient>
    <linearGradient id="wd" x1="0" y1="0" x2="0" y2="1"><stop offset="0" stop-color="#cba46e"/><stop offset="1" stop-color="#a97e46"/></linearGradient>
  </defs>
  <g opacity="0.9">
    <path d="M0 96 Q120 84 240 94 T360 90 V150 H0 Z" fill="url(#g)"/>
    <g stroke="#7a5230" stroke-width="1">
      <rect x="14" y="60" width="10" height="60" rx="3" fill="url(#wd)"/><rect x="110" y="60" width="10" height="60" rx="3" fill="url(#wd)"/><rect x="206" y="60" width="10" height="60" rx="3" fill="url(#wd)"/>
      <rect x="8" y="70" width="212" height="9" rx="3" fill="url(#wd)"/><rect x="8" y="92" width="212" height="9" rx="3" fill="url(#wd)"/>
    </g>
    <g transform="translate(252 74)">
      <rect x="0" y="0" width="58" height="40" rx="7" fill="url(#hay)" stroke="#c1a052" stroke-width="1.5"/>
      <path d="M0 13 H58 M0 27 H58" stroke="#c9a655" stroke-width="2"/><rect x="16" y="-2" width="7" height="44" fill="#b98f4c"/><rect x="40" y="-2" width="7" height="44" fill="#b98f4c"/>
    </g>
    <g transform="translate(298 40)">
      <rect x="0" y="0" width="42" height="30" rx="6" fill="url(#hay)" stroke="#c1a052" stroke-width="1.5"/><path d="M0 10 H42 M0 20 H42" stroke="#c9a655" stroke-width="2"/><rect x="12" y="-2" width="6" height="34" fill="#b98f4c"/>
    </g>
    <g transform="translate(56 96)">
      <path d="M0 0 h30 l-4 22 h-22 z" fill="#8fa3b4" stroke="#5f7383" stroke-width="1.5"/><ellipse cx="15" cy="0" rx="15" ry="4" fill="#a9bccb" stroke="#5f7383" stroke-width="1.5"/><path d="M-2 0 q15 -10 34 0" fill="none" stroke="#7a5230" stroke-width="2.5"/>
    </g>
    <g transform="translate(150 104)" fill="none" stroke="#8a8f9c" stroke-width="6" stroke-linecap="round"><path d="M0 0 a11 11 0 1 0 22 0"/><circle cx="1" cy="-2" r="1.6" fill="#8a8f9c" stroke="none"/><circle cx="21" cy="-2" r="1.6" fill="#8a8f9c" stroke="none"/></g>
  </g>
</svg>
