<svg xmlns="http://www.w3.org/2000/svg" viewBox="0 0 360 150">
  <defs>
    <linearGradient id="gold" x1="0" y1="0" x2="0" y2="1"><stop offset="0" stop-color="#fff3c6"/><stop offset="0.45" stop-color="#ecc865"/><stop offset="1" stop-color="#b3852a"/></linearGradient>
  </defs>
  <g opacity="0.85">
    <!-- laurel branches framing the cup -->
    <g fill="#c8a24a">
      <g fill="none" stroke="#c8a24a" stroke-width="3"><path d="M150 120 Q104 92 116 30"/><path d="M210 120 Q256 92 244 30"/></g>
      <ellipse cx="146" cy="112" rx="7" ry="3.4" transform="rotate(46 146 112)"/><ellipse cx="135" cy="94" rx="7" ry="3.4" transform="rotate(40 135 94)"/><ellipse cx="126" cy="74" rx="7" ry="3.4" transform="rotate(32 126 74)"/><ellipse cx="120" cy="54" rx="7" ry="3.4" transform="rotate(24 120 54)"/><ellipse cx="116" cy="36" rx="7" ry="3.4" transform="rotate(16 116 36)"/>
      <ellipse cx="214" cy="112" rx="7" ry="3.4" transform="rotate(-46 214 112)"/><ellipse cx="225" cy="94" rx="7" ry="3.4" transform="rotate(-40 225 94)"/><ellipse cx="234" cy="74" rx="7" ry="3.4" transform="rotate(-32 234 74)"/><ellipse cx="240" cy="54" rx="7" ry="3.4" transform="rotate(-24 240 54)"/><ellipse cx="244" cy="36" rx="7" ry="3.4" transform="rotate(-16 244 36)"/>
    </g>
    <!-- trophy (single connected piece: bowl -> stem -> base) -->
    <g transform="translate(180 50)">
      <ellipse cx="0" cy="52" rx="34" ry="6" fill="#8a6a2f" opacity="0.25"/>
      <path d="M-24 -28 H24 L16 -2 Q0 8 -16 -2 Z" fill="url(#gold)" stroke="#8a6410" stroke-width="1.6"/>
      <path d="M-24 -24 q-15 0 -15 -13 q0 -8 12 -8" fill="none" stroke="url(#gold)" stroke-width="4"/>
      <path d="M24 -24 q15 0 15 -13 q0 -8 -12 -8" fill="none" stroke="url(#gold)" stroke-width="4"/>
      <path d="M-6 5 H6 L4 16 H-4 Z" fill="url(#gold)" stroke="#8a6410" stroke-width="1.4" stroke-linejoin="round"/>
      <rect x="-13" y="16" width="26" height="7" rx="2" fill="url(#gold)" stroke="#8a6410" stroke-width="1.4"/>
      <rect x="-20" y="23" width="40" height="9" rx="3" fill="url(#gold)" stroke="#8a6410" stroke-width="1.4"/>
      <path d="M0 -22 l3.4 6.9 7.6 1 -5.5 5.4 1.3 7.6 L0 -4.8 l-6.8 3.6 1.3 -7.6 -5.5 -5.4 7.6 -1 z" fill="#fff6d6"/>
    </g>
    <g fill="#ffd257"><path d="M96 40 l2 5 5 2 -5 2 -2 5 -2 -5 -5 -2 5 -2 z"/><path d="M264 34 l2 5 5 2 -5 2 -2 5 -2 -5 -5 -2 5 -2 z"/><path d="M280 84 l1.6 4 4 1.6 -4 1.6 -1.6 4 -1.6 -4 -4 -1.6 4 -1.6 z"/><path d="M80 92 l1.6 4 4 1.6 -4 1.6 -1.6 4 -1.6 -4 -4 -1.6 4 -1.6 z"/></g>
  </g>
</svg>
