<svg xmlns="http://www.w3.org/2000/svg" viewBox="0 0 360 150">
  <defs>
    <linearGradient id="gold" x1="0" y1="0" x2="0" y2="1"><stop offset="0" stop-color="#fff3c6"/><stop offset="45" stop-color="#ecc865"/><stop offset="1" stop-color="#b3852a"/></linearGradient>
  </defs>
  <g opacity="0.9">
    <g fill="#c8a24a" opacity="0.85">
      <g fill="none" stroke="#c8a24a" stroke-width="3"><path d="M156 140 Q104 108 112 46"/><path d="M204 140 Q256 108 248 46"/></g>
      <g transform="translate(0 0)">
        <ellipse cx="150" cy="130" rx="7" ry="3.4" transform="rotate(48 150 130)"/><ellipse cx="139" cy="112" rx="7" ry="3.4" transform="rotate(42 139 112)"/><ellipse cx="128" cy="94" rx="7" ry="3.4" transform="rotate(34 128 94)"/><ellipse cx="120" cy="74" rx="7" ry="3.4" transform="rotate(26 120 74)"/><ellipse cx="114" cy="56" rx="7" ry="3.4" transform="rotate(18 114 56)"/>
        <ellipse cx="210" cy="130" rx="7" ry="3.4" transform="rotate(-48 210 130)"/><ellipse cx="221" cy="112" rx="7" ry="3.4" transform="rotate(-42 221 112)"/><ellipse cx="232" cy="94" rx="7" ry="3.4" transform="rotate(-34 232 94)"/><ellipse cx="240" cy="74" rx="7" ry="3.4" transform="rotate(-26 240 74)"/><ellipse cx="246" cy="56" rx="7" ry="3.4" transform="rotate(-18 246 56)"/>
      </g>
    </g>
    <g transform="translate(180 96)">
      <ellipse cx="0" cy="46" rx="40" ry="7" fill="#8a6a2f" opacity="0.3"/>
      <rect x="-22" y="38" width="44" height="10" rx="3" fill="url(#gold)" stroke="#8a6410" stroke-width="1.4"/>
      <rect x="-13" y="28" width="26" height="12" rx="2" fill="url(#gold)" stroke="#8a6410" stroke-width="1.4"/>
      <path d="M-26 -34 H26 L20 -6 Q0 4 -20 -6 Z" fill="url(#gold)" stroke="#8a6410" stroke-width="1.6"/>
      <path d="M-26 -30 q-14 0 -14 -12 q0 -8 12 -8 M26 -30 q14 0 14 -12 q0 -8 -12 -8" fill="none" stroke="url(#gold)" stroke-width="4"/>
      <path d="M0 -30 l3.4 6.9 7.6 1 -5.5 5.4 1.3 7.6 L0 -6 l-6.8 3.6 1.3 -7.6 -5.5 -5.4 7.6 -1 z" fill="#fff6d6"/>
    </g>
    <g fill="#ffd257"><path d="M84 48 l2 5 5 2 -5 2 -2 5 -2 -5 -5 -2 5 -2 z"/><path d="M280 40 l2 5 5 2 -5 2 -2 5 -2 -5 -5 -2 5 -2 z"/><path d="M300 88 l1.5 4 4 1.5 -4 1.5 -1.5 4 -1.5 -4 -4 -1.5 4 -1.5 z"/></g>
  </g>
</svg>
